<svg width="207" height="85" viewBox="0 0 207 85" fill="none" xmlns="http://www.w3.org/2000/svg">
<path d="M161.3 46.29H163.59V53.77C164.28 52.27 165.5 51 167.53 51C170.99 51 172.29 53.26 172.29 55.94V64.46H170V56.16C170 53.84 169.01 52.93 167.23 52.93C165.3 52.93 163.59 54.56 163.59 57.99V64.45H161.3V46.29ZM158.3 62.57C157.28 62.57 156.62 61.93 156.62 60.76V53.18H159.14V51.3H156.62V47.2L154.38 48.22V51.3H152.42V53.18H154.38V60.92C154.38 62.96 155.53 64.46 158.07 64.46H159.22V62.58H158.3V62.57ZM150.59 46.29H148.3V64.46H150.59V46.29ZM139.8 50.97C136.36 50.97 134.76 53.36 134.48 55.27H136.77C137.08 53.84 138.27 52.9 139.87 52.9C141.75 52.9 142.8 53.69 142.8 54.78C142.8 55.87 142.24 56.36 140.51 56.66C138.53 57.02 133.84 57.14 133.84 60.86C133.84 62.74 135.29 64.75 138.45 64.75C141.38 64.75 142.47 63.05 142.78 62.03H142.8V62.54C142.8 63.28 142.8 63.81 142.85 64.45H145.29C145.19 63.81 145.09 62.77 145.09 61.78V56.13C145.09 54.1 144.63 50.97 139.8 50.97ZM138.85 62.9C137.25 62.9 136.1 62.11 136.1 60.86C136.1 59.54 137.24 58.98 139.15 58.65C142 58.14 142.56 57.38 142.81 56.51L142.84 58.34C142.85 61.61 140.87 62.9 138.85 62.9ZM125.88 64.76C128.81 64.76 131.02 63.34 131.76 60.54H129.52C129.06 62.17 127.59 62.86 125.83 62.86C123.49 62.86 121.81 61.26 121.63 58.51H131.96V58.1C131.91 54.72 130.46 51 125.83 51C122.11 51 119.42 53.85 119.42 57.82C119.41 61.94 121.98 64.76 125.88 64.76ZM121.65 56.67C121.96 54.41 123.46 52.88 125.82 52.88C128.16 52.88 129.43 54.38 129.64 56.67H121.65ZM114.4 46.29V54.33H105.65V46.29H103.23V64.46H105.65V56.37H114.4V64.46H116.82V46.29H114.4ZM109.72 37.45C111.71 37.45 113 36.61 113 34.91C113 33.05 111.4 32.62 109.08 31.93C106.08 31.01 103.1 30 103.07 26.38C103.02 22.89 106.23 21.24 109.56 21.24C113.2 21.24 115.82 22.95 116.2 26.97H112.79C112.46 24.99 111.44 24.07 109.48 24.07C107.77 24.07 106.43 24.76 106.43 26.44C106.43 27.94 107.91 28.63 110.25 29.32C113.33 30.21 116.36 31.05 116.36 34.92C116.36 38.64 113.08 40.29 109.72 40.29C105.75 40.29 102.62 38.3 102.31 34H105.8C105.93 36.22 107.53 37.45 109.72 37.45ZM124.72 40.25C120.75 40.25 117.98 37.42 117.98 33.23C117.98 29.21 120.83 26.31 124.75 26.31C129.15 26.31 131.16 29.64 131.19 33.54V34.18H121.11C121.36 36.29 122.79 37.62 124.7 37.62C126.08 37.62 127.24 37.14 127.73 35.99H130.99C130.19 38.59 127.9 40.25 124.72 40.25ZM128.03 31.97C127.83 30.26 126.81 28.79 124.7 28.79C122.74 28.79 121.44 30.06 121.14 31.97H128.03ZM136.61 21.67V39.84H133.33V21.67H136.61ZM145.49 40.25C141.52 40.25 138.75 37.42 138.75 33.23C138.75 29.21 141.6 26.31 145.52 26.31C149.92 26.31 151.93 29.64 151.96 33.54V34.18H141.88C142.13 36.29 143.56 37.62 145.47 37.62C146.85 37.62 148.01 37.14 148.5 35.99H151.76C150.96 38.59 148.67 40.25 145.49 40.25ZM148.8 31.97C148.6 30.26 147.58 28.79 145.47 28.79C143.51 28.79 142.21 30.06 141.91 31.97H148.8ZM160.79 40.22C156.92 40.22 153.77 37.55 153.77 33.25C153.77 28.95 156.93 26.33 160.79 26.33C164 26.33 166.41 28.14 166.9 30.99H163.79C163.36 29.64 162.29 28.9 160.76 28.9C158.44 28.9 157.02 30.81 157.02 33.28C157.02 35.72 158.44 37.66 160.76 37.66C162.24 37.66 163.43 36.95 163.87 35.45H166.95C166.39 38.52 163.95 40.22 160.79 40.22ZM174.86 37.29H175.7V39.89H174.12C170.86 39.94 169.95 38.01 169.95 35.36V29.18H167.84V26.69H169.95V23.7L173.13 22.3V26.68H175.78V29.17H173.13V34.9C173.13 36.43 173.46 37.29 174.86 37.29Z" fill="#110057"/>
<path d="M66.8304 60.3101C65.6304 61.5101 63.6804 61.5101 62.4804 60.3101L54.8204 52.6501C52.4204 50.2501 48.5204 50.2501 46.1104 52.6501L60.3004 66.8401C62.8504 69.3901 66.7604 69.0901 69.0104 66.8401L88.0203 47.8301C90.4203 45.4301 90.4203 41.5301 88.0203 39.1201L66.8304 60.3101Z" fill="url(#paint0_linear_491_689)"/>
<path d="M60.2998 66.8399C46.0998 52.6499 46.1098 52.6399 46.0998 52.6499C43.6998 55.0499 43.6998 58.9499 46.0998 61.3599L55.9398 71.1999C58.3398 73.5999 62.2398 73.5999 64.6498 71.1999L68.9998 66.8399C66.7598 69.0899 62.8498 69.3899 60.2998 66.8399Z" fill="url(#paint1_linear_491_689)"/>
<path d="M79.3098 39.1201L60.2998 58.1301L62.4798 60.3101C63.6798 61.5101 65.6298 61.5101 66.8298 60.3101L88.0198 39.1201C85.6098 36.7201 81.7098 36.7201 79.3098 39.1201Z" fill="url(#paint2_linear_491_689)"/>
<path d="M53.7703 25.6799C54.9703 24.4799 56.9203 24.4799 58.1203 25.6799L65.7803 33.3399C68.1803 35.7399 72.0803 35.7399 74.4903 33.3399L60.3003 19.1499C57.7503 16.5999 53.8403 16.8999 51.5903 19.1499L32.5803 38.1699C30.1803 40.5699 30.1803 44.4699 32.5803 46.8799L53.7703 25.6799Z" fill="url(#paint3_linear_491_689)"/>
<path d="M60.2998 19.15C74.4898 33.34 74.4798 33.35 74.4898 33.34C76.8898 30.94 76.8898 27.04 74.4898 24.63L64.6498 14.79C62.2498 12.39 58.3498 12.39 55.9398 14.79L51.5898 19.14C53.8398 16.91 57.7498 16.6 60.2998 19.15Z" fill="url(#paint4_linear_491_689)"/>
<path d="M41.2801 46.87L60.3001 27.86L58.1201 25.68C56.9201 24.48 54.9701 24.48 53.7701 25.68L32.5801 46.87C34.9801 49.28 38.8801 49.28 41.2801 46.87Z" fill="url(#paint5_linear_491_689)"/>
<defs>
<linearGradient id="paint0_linear_491_689" x1="55.376" y1="61.9279" x2="83.0959" y2="34.208" gradientUnits="userSpaceOnUse">
<stop offset="0.0222" stop-color="#DF36FF"/>
<stop offset="0.1437" stop-color="#C928F2"/>
<stop offset="0.3299" stop-color="#AE16E2"/>
<stop offset="0.5197" stop-color="#9B0AD6"/>
<stop offset="0.7134" stop-color="#9002CF"/>
<stop offset="0.917" stop-color="#8C00CD"/>
</linearGradient>
<linearGradient id="paint1_linear_491_689" x1="65.8474" y1="72.3997" x2="45.8758" y2="52.4281" gradientUnits="userSpaceOnUse">
<stop offset="0.17" stop-color="#8C00CD"/>
<stop offset="0.3277" stop-color="#9B0AD6"/>
<stop offset="0.6292" stop-color="#C223ED"/>
<stop offset="0.83" stop-color="#DF36FF"/>
</linearGradient>
<linearGradient id="paint2_linear_491_689" x1="86.5481" y1="36.2412" x2="55.5971" y2="67.1922" gradientUnits="userSpaceOnUse">
<stop offset="0.1344" stop-color="#8C00CD"/>
<stop offset="0.1841" stop-color="#990BD8"/>
<stop offset="0.3057" stop-color="#B521ED"/>
<stop offset="0.4126" stop-color="#C62EFA"/>
<stop offset="0.4928" stop-color="#CC33FF"/>
<stop offset="0.5588" stop-color="#C52EFA"/>
<stop offset="0.6524" stop-color="#B31FEB"/>
<stop offset="0.7619" stop-color="#9507D4"/>
<stop offset="0.7887" stop-color="#8C00CD"/>
</linearGradient>
<linearGradient id="paint3_linear_491_689" x1="37.5123" y1="51.7978" x2="65.2321" y2="24.0779" gradientUnits="userSpaceOnUse">
<stop offset="0.35" stop-color="#FF6D66"/>
<stop offset="0.4518" stop-color="#FF6764"/>
<stop offset="0.5967" stop-color="#FF545E"/>
<stop offset="0.7672" stop-color="#FF3555"/>
<stop offset="0.956" stop-color="#FF0B47"/>
<stop offset="1" stop-color="#FF0044"/>
</linearGradient>
<linearGradient id="paint4_linear_491_689" x1="75.7038" y1="34.5501" x2="55.7321" y2="14.5784" gradientUnits="userSpaceOnUse">
<stop offset="0.17" stop-color="#FF0044"/>
<stop offset="0.2421" stop-color="#FF0F4A"/>
<stop offset="0.4873" stop-color="#FF3F5D"/>
<stop offset="0.7042" stop-color="#FF616B"/>
<stop offset="0.8825" stop-color="#FF7674"/>
<stop offset="1" stop-color="#FF7D77"/>
</linearGradient>
<linearGradient id="paint5_linear_491_689" x1="58.8453" y1="24.9788" x2="27.8942" y2="55.9298" gradientUnits="userSpaceOnUse">
<stop stop-color="#B70044"/>
<stop offset="0.3295" stop-color="#FF0044"/>
<stop offset="0.3526" stop-color="#FF124A"/>
<stop offset="0.3957" stop-color="#FF2E52"/>
<stop offset="0.4443" stop-color="#FF465A"/>
<stop offset="0.5" stop-color="#FF575F"/>
<stop offset="0.567" stop-color="#FF6463"/>
<stop offset="0.6568" stop-color="#FF6B65"/>
<stop offset="0.8651" stop-color="#FF6D66"/>
</linearGradient>
</defs>
</svg>
